<?xml version="1.0" encoding="UTF-8"?>
<!-- Created with Inkscape (http://www.inkscape.org/) -->
<svg width="400" height="400" version="1.1" viewBox="0 0 105.83 105.83" xmlns="http://www.w3.org/2000/svg">
 <g transform="matrix(3.3073 0 0 3.3073 -215.85 -179.05)">
  <g transform="matrix(.35278 0 0 -.35278 81.109 73.945)">
   <path d="m0 0c-4.511 2.025-8.062 5.576-10.06 10.025-1.415 3.168-2.425 6.624-3.037 10.237-1.319 0.119-2.663 0.189-4.033 0.189-10.296 0-19.315-3.459-24.352-8.648-0.619-0.636-0.619-1.647 0-2.283 5.037-5.188 14.056-8.648 24.352-8.648 3.074 0 6.028 0.318 8.803 0.889-0.571-2.775-0.889-5.728-0.889-8.803 0-10.295 3.459-19.315 8.648-24.353 0.636-0.618 1.646-0.618 2.283 0 5.188 5.038 8.647 14.058 8.647 24.353 0 1.37-0.069 2.713-0.188 4.032-3.606 0.609-7.044 1.612-10.174 3.01" fill="#f799be"/>
  </g>
  <g transform="matrix(.35278 0 0 -.35278 87.556 66.731)">
   <path d="m0 0c-3.074 0-6.028-0.318-8.803-0.889 0.571 2.775 0.889 5.728 0.889 8.803 0 10.295-3.459 19.315-8.648 24.352-0.636 0.618-1.646 0.618-2.283 0-5.188-5.037-8.647-14.057-8.647-24.352 0-6.111 1.222-11.768 3.298-16.414l0.024-0.055c1.534-3.425 4.275-6.167 7.701-7.701l0.055-0.025c4.646-2.075 10.304-3.298 16.414-3.298 10.296 0 19.315 3.459 24.353 8.647 0.618 0.637 0.618 1.648 0 2.285-5.038 5.188-14.057 8.647-24.353 8.647" fill="#ca93d0"/>
  </g>
 </g>
</svg>
