<?xml version="1.0" encoding="UTF-8"?>
<!-- Created with Inkscape (http://www.inkscape.org/) -->
<svg width="600" height="400" version="1.1" viewBox="0 0 158.75 105.83" xmlns="http://www.w3.org/2000/svg">
 <g transform="matrix(.68351 0 0 -.68351 151.82 98.421)">
  <path d="m0 0c-0.146-0.119-0.382-0.248-0.707-0.388-0.325-0.141-0.707-0.278-1.146-0.41-0.439-0.133-0.935-0.244-1.488-0.333-0.553-0.088-1.13-0.133-1.73-0.133-1.284 0-2.472 0.178-3.561 0.532-1.089 0.355-2.028 0.872-2.815 1.552-0.789 0.68-1.407 1.511-1.854 2.493-0.448 0.983-0.671 2.103-0.671 3.359s0.223 2.375 0.671 3.358c0.447 0.983 1.072 1.814 1.878 2.494 0.804 0.68 1.767 1.197 2.889 1.552s2.356 0.532 3.706 0.532c1.057 0 2.037-0.1 2.938-0.299 0.903-0.2 1.687-0.44 2.353-0.721-0.13-0.207-0.235-0.487-0.317-0.842-0.081-0.355-0.146-0.651-0.195-0.887l-0.146-0.044c-0.179 0.177-0.41 0.376-0.695 0.598-0.284 0.222-0.622 0.436-1.012 0.643s-0.833 0.381-1.328 0.521c-0.497 0.14-1.029 0.211-1.598 0.211-0.959 0-1.849-0.141-2.67-0.422-0.82-0.281-1.535-0.713-2.146-1.296-0.609-0.584-1.085-1.323-1.426-2.217-0.341-0.895-0.512-1.955-0.512-3.181 0-1.227 0.171-2.287 0.512-3.181s0.817-1.633 1.426-2.217c0.611-0.584 1.326-1.016 2.146-1.296 0.821-0.281 1.711-0.422 2.67-0.422 0.586 0 1.126 0.067 1.622 0.2 0.495 0.133 0.951 0.291 1.365 0.476s0.788 0.385 1.122 0.599c0.333 0.214 0.614 0.403 0.841 0.565l0.098-0.088zm-25.736 8.579c0 0.96-0.021 1.917-0.061 2.87-0.042 0.953-0.086 1.91-0.135 2.87 0.211-0.029 0.414-0.054 0.611-0.077 0.194-0.022 0.389-0.033 0.585-0.033 0.194 0 0.389 0.011 0.585 0.033 0.195 0.023 0.398 0.048 0.609 0.077-0.049-0.96-0.094-1.917-0.134-2.87-0.041-0.953-0.061-1.91-0.061-2.87 0-1.863 8e-3 -3.477 0.024-4.844 0.017-1.367 0.033-2.59 0.049-3.669 1.154 0 2.259 0.011 3.316 0.034 1.057 0.022 2.195 0.107 3.414 0.254-0.082-0.251-0.122-0.473-0.122-0.665 0-0.191 0.04-0.413 0.122-0.665-0.748 0.03-1.496 0.056-2.244 0.078-0.747 0.022-1.495 0.033-2.242 0.033-0.765 0-1.517-0.011-2.256-0.033-0.74-0.022-1.491-0.048-2.256-0.078 0.049 0.961 0.093 1.918 0.135 2.871 0.04 0.953 0.061 1.91 0.061 2.871zm-13.877 0c0 0.96-0.021 1.917-0.061 2.87-0.041 0.953-0.086 1.91-0.134 2.87 0.21-0.029 0.414-0.054 0.61-0.077 0.194-0.022 0.389-0.033 0.585-0.033 0.195 0 0.389 0.011 0.585 0.033 0.195 0.023 0.398 0.048 0.609 0.077-0.049-0.96-0.094-1.917-0.134-2.87-0.041-0.953-0.061-1.91-0.061-2.87 0-1.863 9e-3 -3.477 0.024-4.844 0.017-1.367 0.033-2.59 0.049-3.669 1.154 0 2.26 0.011 3.316 0.034 1.057 0.022 2.196 0.107 3.414 0.254-0.081-0.251-0.122-0.473-0.122-0.665 0-0.191 0.041-0.413 0.122-0.665-0.748 0.03-1.496 0.056-2.243 0.078-0.748 0.022-1.496 0.033-2.243 0.033-0.765 0-1.516-0.011-2.256-0.033s-1.491-0.048-2.255-0.078c0.048 0.961 0.093 1.918 0.134 2.871 0.04 0.953 0.061 1.91 0.061 2.871zm-21.799-7.427c0.081-0.147 0.207-0.31 0.378-0.487s0.374-0.344 0.609-0.499c0.237-0.155 0.504-0.285 0.805-0.388s0.622-0.155 0.963-0.155c0.309 0 0.605 0.044 0.89 0.133s0.537 0.214 0.756 0.377c0.219 0.162 0.394 0.369 0.525 0.62 0.13 0.252 0.194 0.539 0.194 0.865 0 0.458-0.143 0.809-0.427 1.053s-0.637 0.443-1.06 0.599c-0.423 0.155-0.886 0.291-1.39 0.41-0.504 0.117-0.968 0.284-1.39 0.498-0.422 0.215-0.777 0.499-1.061 0.854-0.284 0.354-0.427 0.842-0.427 1.463 0 0.487 0.09 0.934 0.269 1.341 0.178 0.406 0.439 0.757 0.781 1.053 0.341 0.295 0.764 0.528 1.268 0.698 0.503 0.17 1.08 0.255 1.731 0.255 0.601 0 1.109-0.074 1.523-0.222 0.415-0.148 0.809-0.281 1.183-0.399-0.065-0.103-0.13-0.229-0.195-0.376-0.065-0.149-0.126-0.296-0.183-0.444s-0.101-0.288-0.134-0.421c-0.032-0.133-0.056-0.244-0.073-0.333h-0.292c-0.131 0.355-0.383 0.673-0.757 0.954-0.374 0.28-0.837 0.421-1.389 0.421-0.244 0-0.489-0.037-0.732-0.111-0.244-0.074-0.463-0.185-0.659-0.332-0.194-0.148-0.357-0.341-0.487-0.577s-0.195-0.518-0.195-0.842c0-0.488 0.142-0.858 0.427-1.109 0.284-0.251 0.638-0.45 1.061-0.598 0.422-0.148 0.885-0.281 1.389-0.399 0.503-0.118 0.967-0.274 1.39-0.466s0.776-0.465 1.06-0.82c0.285-0.354 0.428-0.842 0.428-1.463 0-0.429-0.102-0.85-0.305-1.263-0.204-0.414-0.497-0.787-0.878-1.12-0.382-0.332-0.841-0.602-1.377-0.809-0.537-0.207-1.147-0.31-1.829-0.31-0.749 0-1.374 0.077-1.878 0.232-0.504 0.156-0.926 0.322-1.268 0.499 0.098 0.192 0.199 0.455 0.305 0.787 0.105 0.333 0.158 0.61 0.158 0.831zm-7.516 5.188c0 0.915-0.243 1.621-0.73 2.117-0.488 0.494-1.13 0.742-1.927 0.742-0.878 0-1.561-0.27-2.049-0.809-0.487-0.539-0.73-1.26-0.73-2.161 0-0.917 0.222-1.648 0.67-2.195 0.447-0.547 1.141-0.82 2.085-0.82 0.455 0 0.853 0.085 1.194 0.255 0.342 0.17 0.622 0.399 0.842 0.687 0.219 0.288 0.382 0.621 0.487 0.998 0.107 0.376 0.158 0.772 0.158 1.186m1.318-9.665c0 0.872-0.289 1.5-0.867 1.884-0.576 0.384-1.515 0.576-2.816 0.576-1.203 0-2.142-0.192-2.816-0.576s-1.012-1.049-1.012-1.995c0-0.502 0.094-0.931 0.281-1.286s0.439-0.643 0.755-0.864c0.317-0.222 0.695-0.384 1.135-0.488 0.438-0.103 0.91-0.155 1.414-0.155 0.487 0 0.967 0.059 1.438 0.177s0.891 0.296 1.256 0.532c0.365 0.237 0.662 0.536 0.89 0.898 0.227 0.362 0.342 0.794 0.342 1.297m-8.657 9.554c0 0.621 0.122 1.156 0.367 1.607 0.243 0.451 0.581 0.824 1.011 1.119s0.927 0.517 1.488 0.665c0.56 0.148 1.157 0.222 1.792 0.222 0.308 0 0.605-8e-3 0.889-0.022 0.284-0.015 0.647-0.037 1.086-0.067 0.373-0.03 0.706-0.052 0.999-0.066 0.292-0.015 0.529-0.022 0.707-0.022 0.959 0 1.617 0.036 1.975 0.11-0.016-0.074-0.028-0.151-0.036-0.232-8e-3 -0.082-0.012-0.159-0.012-0.233s4e-3 -0.152 0.012-0.233 0.02-0.159 0.036-0.232c-0.471 0.029-0.93 0.062-1.377 0.099s-0.89 0.063-1.329 0.078l-0.048-0.044c0.503-0.252 0.909-0.64 1.219-1.164 0.307-0.525 0.463-1.068 0.463-1.629 0-1.109-0.411-1.977-1.232-2.605-0.82-0.628-1.922-0.942-3.304-0.942-0.227 0-0.451 7e-3 -0.67 0.022-0.219 0.014-0.444 0.022-0.67 0.022-0.293 0-0.566-0.097-0.818-0.288-0.252-0.192-0.378-0.436-0.378-0.731 0-0.385 0.102-0.666 0.305-0.843s0.581-0.274 1.134-0.288c0.455-0.015 0.902-0.026 1.341-0.033 0.439-8e-3 0.886-0.019 1.341-0.034 0.747-0.014 1.386-0.096 1.914-0.243 0.529-0.149 0.959-0.352 1.293-0.61 0.332-0.259 0.577-0.554 0.731-0.887 0.154-0.332 0.232-0.698 0.232-1.097 0-0.517-0.11-1.042-0.329-1.574s-0.561-1.012-1.024-1.441c-0.464-0.428-1.061-0.783-1.793-1.064-0.731-0.28-1.609-0.421-2.633-0.421-1.577 0-2.82 0.285-3.73 0.854-0.912 0.569-1.367 1.348-1.367 2.338 0 0.399 0.078 0.758 0.233 1.075 0.154 0.318 0.352 0.599 0.597 0.843 0.244 0.243 0.52 0.45 0.829 0.62s0.626 0.299 0.951 0.388v0.044c-0.504 0.133-0.886 0.355-1.147 0.666-0.26 0.31-0.389 0.679-0.389 1.107 0 0.237 0.052 0.462 0.159 0.677 0.105 0.214 0.239 0.403 0.401 0.565 0.162 0.163 0.35 0.296 0.562 0.399 0.211 0.103 0.414 0.17 0.609 0.2v0.044c-0.748 0.295-1.333 0.713-1.756 1.253-0.423 0.539-0.634 1.215-0.634 2.028m-6.718-0.909c0 1.094-0.241 1.929-0.719 2.505-0.481 0.576-1.126 0.864-1.939 0.864-1.138 0-1.971-0.317-2.5-0.953-0.528-0.635-0.792-1.529-0.792-2.682v-1.884c0-0.666 0.013-1.364 0.037-2.095 0.024-0.732 0.078-1.415 0.158-2.051-0.406 0.075-0.772 0.111-1.097 0.111s-0.691-0.036-1.097-0.111c0.081 0.636 0.134 1.319 0.159 2.051 0.024 0.731 0.036 1.429 0.036 2.095v2.305c0 0.665-0.012 1.363-0.036 2.095-0.025 0.731-0.078 1.415-0.159 2.05 0.406-0.074 0.772-0.111 1.097-0.111 0.244 0 0.569 0.037 0.976 0.111-0.049-0.606-0.074-1.197-0.074-1.773h0.049c0.454 0.635 1 1.127 1.634 1.474s1.39 0.521 2.268 0.521c0.455 0 0.914-0.059 1.378-0.177 0.462-0.119 0.88-0.322 1.255-0.61 0.373-0.288 0.679-0.68 0.914-1.175 0.236-0.495 0.354-1.127 0.354-1.895 0-0.636-0.017-1.289-0.049-1.962-0.033-0.672-0.049-1.385-0.049-2.139v-1.441c0-0.473 0.016-0.945 0.049-1.419-0.179 0.03-0.349 0.056-0.512 0.078s-0.334 0.033-0.512 0.033c-0.179 0-0.345-0.011-0.499-0.033-0.156-0.022-0.322-0.048-0.5-0.078 0.032 0.813 0.069 1.626 0.109 2.439 0.041 0.812 0.061 1.647 0.061 2.505zm-30.057-1.197c0-0.887 0.101-1.619 0.305-2.195 0.203-0.576 0.463-1.038 0.78-1.386 0.316-0.346 0.678-0.586 1.084-0.72 0.406-0.133 0.806-0.199 1.195-0.199 0.634 0 1.179 0.144 1.634 0.432s0.833 0.665 1.134 1.131c0.301 0.465 0.519 0.99 0.658 1.573 0.139 0.584 0.207 1.179 0.207 1.785 0 1.404-0.301 2.483-0.902 3.236-0.601 0.754-1.488 1.131-2.657 1.131-0.585 0-1.094-0.122-1.524-0.366-0.432-0.244-0.789-0.584-1.073-1.02s-0.496-0.945-0.635-1.529c-0.138-0.584-0.206-1.208-0.206-1.873m6.973-2.926h-0.049c-0.13-0.237-0.305-0.491-0.524-0.765s-0.496-0.532-0.83-0.776c-0.333-0.243-0.727-0.447-1.181-0.61-0.455-0.162-0.985-0.243-1.585-0.243-0.618 0-1.224 0.103-1.817 0.31s-1.122 0.532-1.585 0.975c-0.463 0.444-0.838 1.009-1.122 1.696-0.285 0.688-0.426 1.511-0.426 2.472 0 0.946 0.154 1.765 0.462 2.46 0.309 0.695 0.711 1.275 1.208 1.741 0.496 0.465 1.057 0.812 1.682 1.042 0.626 0.228 1.256 0.343 1.89 0.343 1.804 0 3.056-0.739 3.756-2.217h0.048v2.184c0 0.761-4e-3 1.507-0.012 2.239-9e-3 0.731-0.021 1.422-0.036 2.072-0.017 0.651-0.034 1.212-0.049 1.685 0.194-0.03 0.382-0.055 0.56-0.077 0.179-0.023 0.358-0.034 0.536-0.034 0.179 0 0.355 0.011 0.525 0.034 0.171 0.022 0.362 0.047 0.573 0.077-0.049-0.473-0.094-1.157-0.135-2.051-0.04-0.894-0.072-1.88-0.096-2.959-0.025-1.079-0.041-2.187-0.049-3.325-9e-3 -1.138-0.012-2.18-0.012-3.125 0-1.006 8e-3 -1.922 0.024-2.749 0.015-0.828 0.033-1.685 0.048-2.572-0.178 0.03-0.345 0.056-0.5 0.078-0.154 0.022-0.304 0.033-0.451 0.033-0.145 0-0.293-0.011-0.438-0.033-0.147-0.022-0.31-0.048-0.488-0.078zm-16.042 8.224c0 0.502-4e-3 1.049-0.012 1.64-9e-3 0.591-0.021 1.175-0.036 1.752-0.017 0.576-0.037 1.126-0.062 1.651-0.024 0.524-0.052 0.972-0.085 1.341 0.407-0.074 0.772-0.111 1.097-0.111s0.691 0.037 1.098 0.111c-0.034-0.369-0.062-0.817-0.085-1.341-0.025-0.525-0.046-1.075-0.062-1.651-0.016-0.577-0.028-1.161-0.036-1.752-9e-3 -0.591-0.013-1.138-0.013-1.64v-4.012c0-0.518 4e-3 -1.068 0.013-1.652 8e-3 -0.584 0.02-1.164 0.036-1.74s0.037-1.127 0.062-1.651c0.023-0.525 0.051-0.972 0.085-1.342-0.407 0.075-0.773 0.111-1.098 0.111s-0.69-0.036-1.097-0.111c0.033 0.37 0.061 0.817 0.085 1.342 0.025 0.524 0.045 1.075 0.062 1.651 0.015 0.576 0.027 1.156 0.036 1.74 8e-3 0.584 0.012 1.134 0.012 1.652zm-14.728-5.099c0-0.62 0.062-1.219 0.184-1.795 0.121-0.576 0.329-1.09 0.621-1.541 0.293-0.451 0.682-0.809 1.171-1.075 0.487-0.266 1.088-0.399 1.803-0.399 0.716 0 1.318 0.133 1.805 0.399s0.878 0.624 1.17 1.075c0.293 0.451 0.5 0.965 0.623 1.541 0.121 0.576 0.182 1.175 0.182 1.795 0 0.621-0.061 1.22-0.182 1.796-0.123 0.576-0.33 1.09-0.623 1.541-0.292 0.45-0.683 0.808-1.17 1.074-0.487 0.267-1.089 0.399-1.805 0.399-0.715 0-1.316-0.132-1.803-0.399-0.489-0.266-0.878-0.624-1.171-1.074-0.292-0.451-0.5-0.965-0.621-1.541-0.122-0.576-0.184-1.175-0.184-1.796m-2.145 0c0 1.005 0.174 1.859 0.524 2.561 0.35 0.701 0.808 1.27 1.378 1.707 0.568 0.435 1.202 0.753 1.901 0.953 0.7 0.199 1.406 0.299 2.121 0.299 0.7 0 1.403-0.1 2.11-0.299 0.707-0.2 1.345-0.518 1.915-0.953 0.568-0.437 1.027-1.006 1.377-1.707 0.349-0.702 0.524-1.556 0.524-2.561s-0.175-1.858-0.524-2.56c-0.35-0.702-0.809-1.271-1.377-1.707-0.57-0.436-1.208-0.754-1.915-0.953-0.707-0.2-1.41-0.299-2.11-0.299-0.715 0-1.421 0.099-2.121 0.299-0.699 0.199-1.333 0.517-1.901 0.953-0.57 0.436-1.028 1.005-1.378 1.707s-0.524 1.555-0.524 2.56m-7.24 4.257c0 0.96-0.021 1.917-0.06 2.87-0.042 0.953-0.086 1.91-0.135 2.87 0.211-0.029 0.414-0.054 0.61-0.077 0.195-0.022 0.39-0.033 0.585-0.033s0.39 0.011 0.585 0.033c0.196 0.023 0.399 0.048 0.61 0.077-0.049-0.96-0.094-1.917-0.134-2.87-0.041-0.953-0.062-1.91-0.062-2.87v-3.813c0-0.961 0.021-1.918 0.062-2.871 0.04-0.953 0.085-1.91 0.134-2.871-0.211 0.03-0.414 0.056-0.61 0.078-0.195 0.022-0.39 0.033-0.585 0.033s-0.39-0.011-0.585-0.033c-0.196-0.022-0.399-0.048-0.61-0.078 0.049 0.961 0.093 1.918 0.135 2.871 0.039 0.953 0.06 1.91 0.06 2.871v1.995c-0.862 0.014-1.711 0.025-2.547 0.033-0.838 7e-3 -1.687 0.011-2.549 0.011s-1.711-4e-3 -2.548-0.011c-0.837-8e-3 -1.687-0.019-2.548-0.033v-1.995c0-0.961 0.02-1.918 0.061-2.871 0.04-0.953 0.085-1.91 0.133-2.871-0.211 0.03-0.414 0.056-0.609 0.078s-0.39 0.033-0.585 0.033-0.39-0.011-0.585-0.033-0.398-0.048-0.61-0.078c0.049 0.961 0.093 1.918 0.134 2.871 0.04 0.953 0.062 1.91 0.062 2.871v3.813c0 0.96-0.022 1.917-0.062 2.87-0.041 0.953-0.085 1.91-0.134 2.87 0.212-0.029 0.415-0.054 0.61-0.077 0.195-0.022 0.39-0.033 0.585-0.033s0.39 0.011 0.585 0.033c0.195 0.023 0.398 0.048 0.609 0.077-0.048-0.96-0.093-1.917-0.133-2.87-0.041-0.953-0.061-1.91-0.061-2.87v-0.776c0.861-0.015 1.711-0.031 2.548-0.045 0.837-0.015 1.686-0.022 2.548-0.022s1.711 7e-3 2.549 0.022c0.836 0.014 1.685 0.03 2.547 0.045zm-30.309-3.968c-0.423-0.133-0.927-0.237-1.512-0.311s-1.142-0.192-1.67-0.354c-0.529-0.163-0.98-0.404-1.353-0.721-0.375-0.318-0.561-0.779-0.561-1.385 0-0.695 0.219-1.219 0.658-1.574s0.927-0.532 1.463-0.532c0.617 0 1.183 0.155 1.695 0.465 0.512 0.311 0.906 0.673 1.182 1.086zm-6.023 3.945c0.734 0.503 1.411 0.842 2.03 1.02 0.62 0.177 1.256 0.266 1.909 0.266 0.586 0 1.125-0.078 1.613-0.233 0.489-0.155 0.905-0.377 1.248-0.665 0.342-0.288 0.611-0.635 0.807-1.042 0.196-0.406 0.294-0.853 0.294-1.341 0-0.842-0.017-1.681-0.049-2.516-0.033-0.835-0.049-1.718-0.049-2.649 0-0.177 4e-3 -0.366 0.013-0.565 8e-3 -0.2 0.044-0.376 0.109-0.532 0.065-0.155 0.158-0.284 0.28-0.388s0.305-0.155 0.549-0.155c0.081 0 0.166 4e-3 0.256 0.011 0.089 7e-3 0.174 0.033 0.256 0.078v-0.488c-0.179-0.074-0.402-0.144-0.671-0.211-0.268-0.066-0.565-0.1-0.892-0.1-0.527 0-0.93 0.134-1.21 0.4s-0.445 0.591-0.495 0.975c-0.585-0.532-1.162-0.935-1.731-1.208-0.568-0.273-1.268-0.41-2.097-0.41-0.406 0-0.804 0.063-1.194 0.188-0.391 0.126-0.736 0.307-1.037 0.543-0.301 0.237-0.544 0.521-0.732 0.854-0.187 0.332-0.28 0.713-0.28 1.141 0 0.887 0.305 1.574 0.914 2.062 0.611 0.488 1.451 0.812 2.525 0.975 0.877 0.133 1.564 0.247 2.06 0.344 0.495 0.095 0.861 0.195 1.097 0.299 0.235 0.103 0.378 0.226 0.427 0.366 0.048 0.14 0.073 0.321 0.073 0.543 0 0.369-0.049 0.724-0.146 1.064-0.097 0.339-0.253 0.635-0.464 0.887-0.211 0.251-0.487 0.454-0.829 0.609-0.341 0.155-0.756 0.233-1.243 0.233-0.65 0-1.256-0.133-1.816-0.399-0.562-0.266-0.981-0.636-1.257-1.109h-0.268zm-7.846 0.865c0 0.502-5e-3 1.049-0.013 1.64s-0.02 1.175-0.036 1.752c-0.017 0.576-0.037 1.126-0.062 1.651-0.024 0.524-0.052 0.972-0.085 1.341 0.407-0.074 0.772-0.111 1.097-0.111 0.326 0 0.691 0.037 1.098 0.111-0.033-0.369-0.061-0.817-0.085-1.341-0.025-0.525-0.045-1.075-0.062-1.651-0.015-0.577-0.028-1.161-0.036-1.752s-0.013-1.138-0.013-1.64v-4.012c0-0.518 5e-3 -1.068 0.013-1.652s0.021-1.164 0.036-1.74c0.017-0.576 0.037-1.127 0.062-1.651 0.024-0.525 0.052-0.972 0.085-1.342-0.407 0.075-0.772 0.111-1.098 0.111-0.325 0-0.69-0.036-1.097-0.111 0.033 0.37 0.061 0.817 0.085 1.342 0.025 0.524 0.045 1.075 0.062 1.651 0.016 0.576 0.028 1.156 0.036 1.74s0.013 1.134 0.013 1.652zm93.793 4.413c-0.187 0-0.366-0.021-0.532-0.062 0.041 0.166 0.064 0.344 0.064 0.531 0 0.592-0.223 1.105-0.548 1.361-0.324-0.256-0.547-0.769-0.547-1.361 0-0.187 0.023-0.365 0.063-0.531-0.165 0.041-0.344 0.062-0.531 0.062-0.592 0-1.105-0.222-1.361-0.546 0.256-0.326 0.769-0.548 1.361-0.548 0.187 0 0.366 0.023 0.531 0.063-0.04-0.165-0.063-0.344-0.063-0.531 0-0.592 0.223-1.105 0.547-1.361 0.325 0.256 0.548 0.769 0.548 1.361 0 0.187-0.023 0.366-0.064 0.531 0.166-0.04 0.345-0.063 0.532-0.063 0.591 0 1.105 0.222 1.361 0.548-0.256 0.324-0.77 0.546-1.361 0.546m-1.918-8.359c0 0.665-0.012 1.363-0.036 2.095-0.025 0.731-0.079 1.415-0.159 2.05 0.407-0.074 0.772-0.111 1.097-0.111s0.691 0.037 1.098 0.111c-0.082-0.635-0.134-1.319-0.159-2.05-0.024-0.732-0.037-1.43-0.037-2.095v-2.305c0-0.666 0.013-1.364 0.037-2.095 0.025-0.732 0.077-1.415 0.159-2.051-0.407 0.075-0.773 0.111-1.098 0.111s-0.69-0.036-1.097-0.111c0.08 0.636 0.134 1.319 0.159 2.051 0.024 0.731 0.036 1.429 0.036 2.095zm-97.955 8.359c-0.187 0-0.366-0.021-0.532-0.062 0.041 0.166 0.063 0.344 0.063 0.531 0 0.592-0.222 1.105-0.547 1.361-0.325-0.256-0.547-0.769-0.547-1.361 0-0.187 0.023-0.365 0.063-0.531-0.165 0.041-0.344 0.062-0.532 0.062-0.591 0-1.104-0.222-1.36-0.546 0.256-0.326 0.769-0.548 1.36-0.548 0.188 0 0.367 0.023 0.532 0.063-0.04-0.165-0.063-0.344-0.063-0.531 0-0.592 0.222-1.105 0.547-1.361 0.325 0.256 0.547 0.769 0.547 1.361 0 0.187-0.022 0.366-0.063 0.531 0.166-0.04 0.345-0.063 0.532-0.063 0.591 0 1.104 0.222 1.361 0.548-0.257 0.324-0.77 0.546-1.361 0.546m-1.918-8.359c0 0.665-0.012 1.363-0.037 2.095-0.024 0.731-0.078 1.415-0.159 2.05 0.407-0.074 0.773-0.111 1.098-0.111s0.691 0.037 1.098 0.111c-0.082-0.635-0.135-1.319-0.16-2.05-0.024-0.732-0.036-1.43-0.036-2.095v-2.305c0-0.666 0.012-1.364 0.036-2.095 0.025-0.732 0.078-1.415 0.16-2.051-0.407 0.075-0.773 0.111-1.098 0.111s-0.691-0.036-1.098-0.111c0.081 0.636 0.135 1.319 0.159 2.051 0.025 0.731 0.037 1.429 0.037 2.095zm-13.843 3.104c0 0.96-0.021 1.917-0.061 2.87-0.041 0.953-0.085 1.91-0.133 2.87 0.21-0.029 0.414-0.054 0.609-0.077 0.194-0.022 0.391-0.033 0.585-0.033 0.195 0 0.39 0.011 0.585 0.033 0.195 0.023 0.398 0.048 0.61 0.077-0.05-0.96-0.094-1.917-0.135-2.87s-0.06-1.91-0.06-2.87c0-1.863 8e-3 -3.477 0.023-4.844 0.017-1.367 0.033-2.59 0.049-3.669 1.154 0 2.26 0.011 3.317 0.034 1.056 0.022 2.195 0.107 3.414 0.254-0.081-0.251-0.122-0.473-0.122-0.665 0-0.191 0.041-0.413 0.122-0.665-0.748 0.03-1.496 0.056-2.244 0.078s-1.496 0.033-2.243 0.033c-0.764 0-1.516-0.011-2.256-0.033s-1.491-0.048-2.254-0.078c0.048 0.961 0.092 1.918 0.133 2.871 0.04 0.953 0.061 1.91 0.061 2.871z" fill="#4f4c4d"/>
 </g>
 <g transform="matrix(1.2744 0 0 1.2744 -20.092 -4.2759)">
  <g transform="matrix(.68351 0 0 -.68351 77.656 41.625)">
   <path d="m0 0c-4.511 2.025-8.062 5.576-10.06 10.025-1.415 3.168-2.425 6.624-3.037 10.237-1.319 0.119-2.663 0.189-4.033 0.189-10.296 0-19.315-3.459-24.352-8.648-0.619-0.636-0.619-1.647 0-2.283 5.037-5.188 14.056-8.648 24.352-8.648 3.074 0 6.028 0.318 8.803 0.889-0.571-2.775-0.889-5.728-0.889-8.803 0-10.295 3.459-19.315 8.648-24.353 0.636-0.618 1.646-0.618 2.283 0 5.188 5.038 8.647 14.058 8.647 24.353 0 1.37-0.069 2.713-0.188 4.032-3.606 0.609-7.044 1.612-10.174 3.01" fill="#f799be"/>
  </g>
  <g transform="matrix(.68351 0 0 -.68351 90.153 27.656)">
   <path d="m0 0c-3.074 0-6.028-0.318-8.803-0.889 0.571 2.775 0.889 5.728 0.889 8.803 0 10.295-3.459 19.315-8.648 24.352-0.636 0.618-1.646 0.618-2.283 0-5.188-5.037-8.647-14.057-8.647-24.352 0-6.111 1.222-11.768 3.298-16.414l0.024-0.055c1.534-3.425 4.275-6.167 7.701-7.701l0.055-0.025c4.646-2.075 10.304-3.298 16.414-3.298 10.296 0 19.315 3.459 24.353 8.647 0.618 0.637 0.618 1.648 0 2.285-5.038 5.188-14.057 8.647-24.353 8.647" fill="#ca93d0"/>
  </g>
 </g>
</svg>
