<svg id="Group_16494" data-name="Group 16494" xmlns="http://www.w3.org/2000/svg" width="1499.561" height="446.619" viewBox="0 0 1499.561 446.619">
  <path id="Path_22848" data-name="Path 22848" d="M42.166-15.315c0-17.672,7.776-24.388,20.147-24.388s20.147,6.716,20.147,24.388v133.6c0,17.672-7.776,24.388-20.147,24.388s-20.147-6.716-20.147-24.388ZM3.286,115.815c0,39.586,20.854,62.207,59.026,62.207s59.026-22.621,59.026-62.207V-12.841c0-39.586-20.854-62.207-59.026-62.207S3.286-52.427,3.286-12.841Zm240.346,59.379h39.94V-72.22H248.934v148.1l-39.94-148.1H160.218V175.194H195.21V-4Zm117.7-190.509c0-17.672,7.776-24.388,20.147-24.388s20.147,6.716,20.147,24.388v133.6c0,17.672-7.776,24.388-20.147,24.388s-20.147-6.716-20.147-24.388Zm-38.88,131.13c0,39.586,20.854,62.207,59.026,62.207S440.5,155.4,440.5,115.815V-12.841c0-39.586-20.854-62.207-59.026-62.207s-59.026,22.621-59.026,62.207ZM533.461-72.22H479.383V175.194h33.931V.237L542.3,175.194h36.759L605.919-2.237V175.194h36.759V-72.22H588.6L562.091,103.444ZM721.5,175.194h38.88v-82L809.506-72.22H772.394L742.7,40.53,713.014-72.22H672.367L721.5,93.194Z" transform="translate(690.055 171.82)" fill="#00000e"/>
  <g id="onomy_black" data-name="onomy black" transform="translate(0)">
    <path id="Path_22776" data-name="Path 22776" d="M453.18,289.759c-83.9-46.8-116.574-10.233-123.984,54.773C309.911,219.488,349.28,172.22,419.287,203.924c33.2,15.031,60.093,34.244,82.96,54.331a77.582,77.582,0,0,0,52.395,19.228" transform="translate(-276.115 -184.031)" fill="#353340"/>
    <path id="Path_22777" data-name="Path 22777" d="M420.522,277.483A82.941,82.941,0,0,0,473.27,257.59a355.845,355.845,0,0,1,84.137-53.666c70.113-31.7,109.541,15.564,90.227,140.608C638.9,350.726,630.342,357,621.3,363.849c.825-19.7-1.881-42.534-2.182-59.726-.982-55.961-79.64-35.672-120.281,11.452-23.6,27.363,8.524,64.8,45.228,89.668a132.06,132.06,0,0,0,20.05,4.059c-14.83,12.133-31.87,26.22-52.17,43.062-25.5-23.947-58.133-54.646-90.748-83.457" transform="translate(-142.342 -184.031)" fill="#353340"/>
    <path id="Path_22778" data-name="Path 22778" d="M555.323,277.472a82.715,82.715,0,0,1-52.012-19.883,355.537,355.537,0,0,0-84.021-53.664c-70.014-31.7-109.384,15.561-90.094,140.6,8.725,6.191,17.259,12.454,26.294,19.314-.812-19.7,1.888-42.524,2.175-59.735.98-55.959,79.528-35.664,120.092,11.45,23.569,27.37-8.51,64.8-45.154,89.663a133.345,133.345,0,0,1-20.031,4.063c14.8,12.143,31.815,26.222,52.086,43.074,25.474-23.956,58.078-54.677,90.664-83.5S555.323,277.472,555.323,277.472Z" transform="translate(-276.118 -184.026)" fill="#353340"/>
    <path id="Path_22779" data-name="Path 22779" d="M434.792,399.917c14.727,35.344,44.012,68.219,75.426,87.093,80.018,39.551,126.488-21.97,106.2-88.076-9.108-29.665-43.2-88.355-96.213-109.954C506.895,283.558,420.064,364.573,434.792,399.917Zm36.322-58.578c3.767-21.179,14-19.434,19.636-17.017,22.907,9.817,50.468,33.939,60.214,58.251,13.922,34.739-9.963,56.566-41.114,36.315C481.425,400.407,465.879,370.793,471.114,341.339Z" transform="translate(-124.832 -52.847)" fill="#353340"/>
    <path id="Path_22780" data-name="Path 22780" d="M431.075,288.98c-53.013,21.6-87.105,80.29-96.21,109.954-20.291,66.106,26.18,127.627,106.2,88.076,31.414-18.874,60.7-51.749,75.425-87.093S444.386,283.558,431.075,288.98Zm10.355,129.907c-31.151,20.251-55.036-1.575-41.114-36.315,9.743-24.312,37.306-48.433,60.213-58.251,5.639-2.417,15.869-4.161,19.634,17.017C485.4,370.793,469.855,400.407,441.431,418.887Z" transform="translate(-268.04 -52.847)" fill="#353340"/>
    <path id="Path_22781" data-name="Path 22781" d="M719.357,209.937c152.922-52.951,62.6,218.241-136.019,218.241S294.4,156.985,447.321,209.937C280.653,123.358,237.454,340.31,437.289,458.97c59.369,35.253,119.186,100.185,39.881,165.237,50.229-25,62.663-70.2,106.168-70.2s55.942,45.2,106.168,70.2c-79.3-65.052-19.491-129.984,39.881-165.237C929.22,340.31,886.023,123.358,719.357,209.937Z" transform="translate(-304.147 -190.044)" fill="#00000e"/>
  </g>
</svg>
